<?xml version="1.0" encoding="UTF-8" standalone="no"?>
<!-- Created with Inkscape (http://www.inkscape.org/) -->

<svg
   width="52mm"
   height="16mm"
   version="1.1"
   id="svg14"
   sodipodi:docname="ApongUs.svg"
   inkscape:version="1.1.2 (b8e25be833, 2022-02-05)"
   xmlns:inkscape="http://www.inkscape.org/namespaces/inkscape"
   xmlns:sodipodi="http://sodipodi.sourceforge.net/DTD/sodipodi-0.dtd"
   xmlns="http://www.w3.org/2000/svg"
   xmlns:svg="http://www.w3.org/2000/svg">
  <defs
     id="defs18" />
  <sodipodi:namedview
     id="namedview16"
     pagecolor="#505050"
     bordercolor="#eeeeee"
     borderopacity="1"
     inkscape:pageshadow="0"
     inkscape:pageopacity="0"
     inkscape:pagecheckerboard="0"
     inkscape:document-units="mm"
     showgrid="false"
     inkscape:zoom="4.0378048"
     inkscape:cx="116.39988"
     inkscape:cy="49.284205"
     inkscape:window-width="1920"
     inkscape:window-height="1025"
     inkscape:window-x="0"
     inkscape:window-y="27"
     inkscape:window-maximized="1"
     inkscape:current-layer="text6095" />
  <g
     transform="matrix(4.0694 0 0 4.0694 -5.3553 -.25177)"
     id="g12">
    <text
       transform="matrix(.26458 0 0 .26458 -82.039 -107.97)"
       x="88.447266"
       fill="#000000"
       font-family="sans-serif"
       font-size="38.667px"
       letter-spacing="0px"
       word-spacing="0px"
       style="line-height:1.25;shape-inside:url(#rect3422);white-space:pre"
       xml:space="preserve"
       id="text2" />
    <g
       fill="#efcb68"
       stroke-width=".11412"
       id="g10">
      <circle
         cx="11.342"
         cy="4.5622"
         r=".60503"
         id="circle4" />
      <circle
         cx="25.928"
         cy="2.4091"
         r=".60503"
         id="circle6" />
      <circle
         cx="40.248"
         cy="6.8405"
         r=".60503"
         id="circle8" />
    </g>
  </g>
  <g
     aria-label="Apong Us"
     id="text6095"
     style="font-size:40px;line-height:1.25;letter-spacing:0px;word-spacing:0px">
    <path
       d="M 31.512293,35.921669 V 30.3162 q 0,-1.152343 -0.449219,-2.167968 -0.429687,-1.035157 -1.191406,-1.796875 -0.761719,-0.761719 -1.796875,-1.191407 -1.015625,-0.449218 -2.167969,-0.449218 -1.152344,0 -2.1875,0.449218 -1.015625,0.429688 -1.777344,1.191407 -0.761718,0.761718 -1.210937,1.796875 -0.429688,1.015625 -0.429688,2.167968 v 5.605469 z m 5.605469,11.191406 H 31.512293 V 41.507607 H 20.301355 v 5.605468 H 14.715418 V 30.3162 q 0,-2.324218 0.878906,-4.355468 0.878906,-2.050782 2.382813,-3.574219 1.523437,-1.523438 3.554687,-2.402344 2.050781,-0.878906 4.375,-0.878906 2.324219,0 4.355469,0.878906 2.050781,0.878906 3.574219,2.402344 1.523437,1.523437 2.402343,3.574219 0.878907,2.03125 0.878907,4.355468 z"
       style="font-family:Righteous;-inkscape-font-specification:Righteous;fill:#c4c4c4;fill-opacity:1"
       id="path835" />
    <path
       d="M 46.78573,55.081825 H 41.414637 V 26.195107 h 1.289062 l 2.128906,2.519531 q 0.722657,-0.683594 1.582032,-1.289063 0.859375,-0.605468 1.777343,-1.035156 0.9375,-0.449219 1.933594,-0.703125 0.996094,-0.253906 2.011719,-0.253906 2.207031,0 4.140625,0.800781 1.953125,0.78125 3.398437,2.226563 1.464844,1.445312 2.304688,3.496093 0.839844,2.03125 0.839844,4.511719 0,2.578125 -0.839844,4.648438 -0.839844,2.050781 -2.304688,3.496093 -1.445312,1.425782 -3.398437,2.1875 -1.933594,0.761719 -4.140625,0.761719 -0.703125,0 -1.40625,-0.15625 -0.683594,-0.15625 -1.367188,-0.410156 -0.664062,-0.273438 -1.328125,-0.605469 -0.644531,-0.332031 -1.25,-0.683594 z M 57.469324,36.468544 q 0,-1.328125 -0.429687,-2.382812 Q 56.62948,33.031044 55.906824,32.308388 55.184168,31.5662 54.207605,31.175575 53.231043,30.78495 52.137293,30.78495 q -1.09375,0 -2.070313,0.390625 -0.957031,0.390625 -1.679687,1.132813 -0.722656,0.722656 -1.152344,1.777344 -0.410156,1.054687 -0.410156,2.382812 0,1.269531 0.410156,2.324219 0.429688,1.054687 1.152344,1.796875 0.722656,0.742187 1.679687,1.152344 0.976563,0.410156 2.070313,0.410156 1.09375,0 2.070312,-0.410156 0.976563,-0.410157 1.699219,-1.152344 0.722656,-0.742188 1.132813,-1.796875 0.429687,-1.054688 0.429687,-2.324219 z"
       style="font-family:Righteous;-inkscape-font-specification:Righteous;fill:#0a3e52;fill-opacity:1"
       id="path837" />
    <path
       d="m 85.984949,36.468544 q 0,2.34375 -0.839844,4.375 -0.839843,2.011719 -2.285156,3.496094 -1.445312,1.464844 -3.398437,2.324219 -1.933594,0.839843 -4.160157,0.839843 -2.207031,0 -4.160156,-0.839843 -1.933594,-0.859375 -3.398437,-2.324219 -1.445313,-1.484375 -2.285157,-3.496094 -0.839843,-2.03125 -0.839843,-4.375 0,-2.382812 0.839843,-4.414062 0.839844,-2.03125 2.285157,-3.496094 1.464843,-1.484375 3.398437,-2.324219 1.953125,-0.839844 4.160156,-0.839844 2.226563,0 4.160157,0.800782 1.953125,0.78125 3.398437,2.246093 1.445313,1.445313 2.285156,3.496094 0.839844,2.03125 0.839844,4.53125 z m -5.371094,0 q 0,-1.289062 -0.429687,-2.324219 -0.410156,-1.054687 -1.132813,-1.796875 -0.722656,-0.761718 -1.699218,-1.152343 -0.957032,-0.410157 -2.050782,-0.410157 -1.09375,0 -2.070312,0.410157 -0.957031,0.390625 -1.679688,1.152343 -0.703125,0.742188 -1.113281,1.796875 -0.410156,1.035157 -0.410156,2.324219 0,1.210938 0.410156,2.246094 0.410156,1.035156 1.113281,1.796875 0.722657,0.761719 1.679688,1.210937 0.976562,0.429688 2.070312,0.429688 1.09375,0 2.050782,-0.410156 0.976562,-0.410157 1.699218,-1.152344 0.722657,-0.742188 1.132813,-1.796875 0.429687,-1.054688 0.429687,-2.324219 z"
       style="font-family:Righteous;-inkscape-font-specification:Righteous;fill:#0a3e52;fill-opacity:1"
       id="path839" />
    <path
       d="M 94.266199,47.113075 H 88.934168 V 26.195107 h 1.289062 l 1.757813,2.03125 q 1.289062,-1.171875 2.910156,-1.796875 1.640625,-0.644532 3.417969,-0.644532 1.914062,0 3.613282,0.742188 1.69922,0.722656 2.96875,2.011719 1.26953,1.269531 1.99219,2.988281 0.74218,1.699219 0.74218,3.632812 v 11.953125 h -5.33203 V 35.15995 q 0,-0.820312 -0.3125,-1.542968 -0.3125,-0.742188 -0.85937,-1.289063 -0.54688,-0.546875 -1.269533,-0.859375 -0.722657,-0.3125 -1.542969,-0.3125 -0.839844,0 -1.582031,0.3125 -0.742188,0.3125 -1.289063,0.859375 -0.546875,0.546875 -0.859375,1.289063 -0.3125,0.722656 -0.3125,1.542968 z"
       style="font-family:Righteous;-inkscape-font-specification:Righteous;fill:#0a3e52;fill-opacity:1"
       id="path841" />
    <path
       d="m 126.29745,36.468544 q 0,-1.09375 -0.42969,-2.109375 -0.41015,-1.035156 -1.13281,-1.816406 -0.72266,-0.800781 -1.69922,-1.269531 -0.95703,-0.488282 -2.05078,-0.488282 -1.09375,0 -2.07031,0.371094 -0.95703,0.371094 -1.67969,1.09375 -0.70313,0.722656 -1.11328,1.796875 -0.41016,1.054688 -0.41016,2.421875 0,1.308594 0.41016,2.363281 0.41015,1.035157 1.11328,1.777344 0.72266,0.742188 1.67969,1.152344 0.97656,0.390625 2.07031,0.390625 1.09375,0 2.05078,-0.46875 0.97656,-0.488281 1.69922,-1.269531 0.72266,-0.800782 1.13281,-1.816407 0.42969,-1.035156 0.42969,-2.128906 z m 5.37109,8.007813 q 0,2.207031 -0.83984,4.140625 -0.83984,1.933593 -2.30469,3.378906 -1.44531,1.445312 -3.39844,2.285156 -1.93359,0.839844 -4.14062,0.839844 l -2.67578,-0.03906 v -5.332031 l 2.63672,0.03906 q 1.25,0 2.1289,-0.332032 0.87891,-0.3125 1.48438,-0.878906 0.60547,-0.546875 0.95703,-1.269531 0.37109,-0.722656 0.58594,-1.523438 -0.3125,0.507813 -0.89844,0.839844 -0.58594,0.3125 -1.30859,0.507813 -0.70313,0.214843 -1.48438,0.292968 -0.76172,0.07813 -1.42578,0.07813 -2.20703,0 -4.16016,-0.761718 -1.93359,-0.761719 -3.39843,-2.167969 -1.44532,-1.425781 -2.28516,-3.476563 -0.83984,-2.050781 -0.83984,-4.628906 0,-2.363281 0.83984,-4.394531 0.83984,-2.03125 2.28516,-3.515625 1.46484,-1.484375 3.39843,-2.324219 1.95313,-0.839844 4.16016,-0.839844 1.01562,0 2.01172,0.253907 0.99609,0.253906 1.93359,0.703125 0.9375,0.449218 1.77735,1.054687 0.85937,0.605469 1.60156,1.308594 l 2.07031,-2.480469 h 1.28906 z"
       style="font-family:Righteous;-inkscape-font-specification:Righteous;fill:#0a3e52;fill-opacity:1"
       id="path843" />
    <path
       d="m 169.5787,35.921669 q 0,2.324219 -0.87891,4.375 -0.8789,2.03125 -2.40234,3.554688 -1.52344,1.503906 -3.57422,2.382812 -2.03125,0.878906 -4.35547,0.878906 -2.32422,0 -4.375,-0.878906 -2.03125,-0.878906 -3.55469,-2.382812 -1.5039,-1.523438 -2.38281,-3.554688 -0.8789,-2.050781 -0.8789,-4.375 V 19.105263 h 5.58593 v 16.816406 q 0,1.152344 0.42969,2.167969 0.44922,1.015625 1.21094,1.777344 0.76172,0.761718 1.77734,1.210937 1.03516,0.429688 2.1875,0.429688 1.15235,0 2.16797,-0.429688 1.03516,-0.449219 1.79688,-1.210937 0.76171,-0.761719 1.1914,-1.777344 0.44922,-1.015625 0.44922,-2.167969 V 19.105263 h 5.60547 z"
       style="font-family:Righteous;-inkscape-font-specification:Righteous;fill:#c4c4c4;fill-opacity:1"
       id="path845" />
    <path
       d="m 184.96932,47.113075 h -12.1875 v -5.3125 h 12.1875 q 0.54688,0 0.9375,-0.390625 0.39063,-0.390625 0.39063,-0.9375 0,-0.566406 -0.39063,-0.742187 -0.39062,-0.175781 -0.9375,-0.175781 h -5.54687 q -1.38672,0 -2.59766,-0.527344 -1.21093,-0.527344 -2.10937,-1.425781 -0.89844,-0.917969 -1.42578,-2.128907 -0.50782,-1.210937 -0.50782,-2.597656 0,-1.386719 0.50782,-2.597656 0.52734,-1.210938 1.42578,-2.109375 0.89844,-0.898438 2.10937,-1.40625 1.21094,-0.527344 2.59766,-0.527344 h 10.80078 v 5.3125 h -10.80078 q -0.54688,0 -0.9375,0.390625 -0.39063,0.390625 -0.39063,0.9375 0,0.566406 0.39063,0.976563 0.39062,0.390625 0.9375,0.390625 h 5.54687 q 1.36719,0 2.57813,0.46875 1.21094,0.449218 2.10937,1.269531 0.89844,0.820312 1.42579,1.972656 0.52734,1.152344 0.52734,2.519531 0,1.386719 -0.52734,2.597657 -0.52735,1.191406 -1.42579,2.109375 -0.89843,0.898437 -2.10937,1.425781 -1.21094,0.507812 -2.57813,0.507812 z"
       style="font-family:Righteous;-inkscape-font-specification:Righteous;fill:#c4c4c4;fill-opacity:1"
       id="path847" />
  </g>
</svg>
