<svg xmlns="http://www.w3.org/2000/svg" viewBox="0 0 512 512"><path fill="#f69531" d="M457.21,8.31,498.44,26a10,10,0,0,1-.07,18.41L457.28,61.65a10,10,0,0,1-13.87-9.18l-.15-34.93a10,10,0,0,1,13.95-9.23Z"/><path fill="#f48a31" d="M498.44,26,457.21,8.31a10,10,0,0,0-10.71,1.84L483.44,26a10,10,0,0,1-.07,18.41l-36.7,15.41a10,10,0,0,0,10.61,1.84L498.37,44.4A10,10,0,0,0,498.44,26Z"/><path fill="#f69531" d="M54.79,8.31,13.56,26a10,10,0,0,0,.07,18.41L54.72,61.65a10,10,0,0,0,13.87-9.18l.15-34.93A10,10,0,0,0,54.79,8.31Z"/><rect width="374.6" height="30" x="68.66" y="19.87" fill="#fddd5a"/><path fill="#fed947" d="M428.26,19.87h0a15,15,0,0,1-15,15H68.66v15h374.6v-30Z"/><path fill="#f69531" d="M457.21,450.38l41.23,17.68a10,10,0,0,1-.07,18.41l-41.09,17.25a10,10,0,0,1-13.09-5.35,10.12,10.12,0,0,1-.78-3.83l-.15-34.93a10,10,0,0,1,13.95-9.23Z"/><path fill="#f48a31" d="M498.44,468.06l-41.23-17.68a10.14,10.14,0,0,0-4-.82,10,10,0,0,0-6.72,2.66l36.94,15.84a10,10,0,0,1-.07,18.41l-36.7,15.4a10,10,0,0,0,10.61,1.85l41.09-17.25a10,10,0,0,0,.07-18.41Z"/><path fill="#f69531" d="M54.79,450.38,13.56,468.06a10,10,0,0,0,.07,18.41l41.09,17.25a10,10,0,0,0,13.09-5.35,10.12,10.12,0,0,0,.78-3.83l.15-34.93a10,10,0,0,0-13.95-9.23Z"/><rect width="374.6" height="30" x="68.7" y="460.25" fill="#fddd5a"/><path fill="#fed947" d="M428.3,460.25h0a15,15,0,0,1-15,15H68.7v15H443.3v-30Z"/><rect width="305.6" height="410.38" x="103.2" y="49.87" fill="#e1e1e3"/><path fill="#c8c5cc" d="M393.8,49.87V426.94a20,20,0,0,1-20,20H103.2v13.31H408.8V49.87Z"/><path fill="#eb304a" d="M259,221.39l14.16-14.16a3,3,0,0,0,.88-2.12v-31a3,3,0,0,1,3-3h30.09a3,3,0,0,0,2.12-.87l14.16-14.16a3,3,0,0,0,0-4.25l-14.16-14.17a3,3,0,0,0-2.12-.87H277a3,3,0,0,1-3-3V102.9a3,3,0,0,0-.88-2.12L259,86.61a3,3,0,0,0-4.24,0l-14.17,14.17a3,3,0,0,0-.88,2.12v30.94a3,3,0,0,1-3,3h-31.8a3,3,0,0,0-2.12.87l-14.16,14.17a3,3,0,0,0,0,4.25l14.16,14.16a3,3,0,0,0,2.12.87h31.8a3,3,0,0,1,3,3v31a3,3,0,0,0,.88,2.12l14.17,14.16A3,3,0,0,0,259,221.39Z"/><path fill="#e4222e" d="M323.39,151.88l-14.16-14.17a3,3,0,0,0-2.12-.88H277a3,3,0,0,1-3-3V102.9a3,3,0,0,0-.88-2.12L259,86.61a3,3,0,0,0-4.24,0l-14.17,14.17a2.87,2.87,0,0,0-.58.84l5.23-5.23a3,3,0,0,1,4.24,0l14.16,14.17a3,3,0,0,1,.88,2.12v30.94a3,3,0,0,0,3,3h30.08a3,3,0,0,1,2.13.88l14.16,14.17a3,3,0,0,1,.58,3.4l8.94-8.94A3,3,0,0,0,323.39,151.88Z"/><path d="m 198.35,176.47 c 1.4033,1.40973 3.31089,2.20156 5.3,2.2 h 28.54 v 27.68 c 2e-4,1.9917 0.79156,3.90175 2.2,5.31 l 17.17,17.16 c 2.92358,2.93561 7.67642,2.93561 10.6,0 l 17.16,-17.16 c 1.40844,-1.40825 2.1998,-3.3183 2.2,-5.31 v -27.68 h 26.83 c 1.98911,0.002 3.8967,-0.79027 5.3,-2.2 l 17.16,-17.16 c 2.9312,-2.92932 2.9312,-7.68068 0,-10.61 l -17.16,-17.17 c -1.40579,-1.406 -3.31177,-2.19715 -5.3,-2.2 h -26.83 v -27.68 c -0.002,-1.988454 -0.79308,-3.894826 -2.2,-5.3 L 262.17,79.18 c -1.41316,-1.401078 -3.32004,-2.191123 -5.31,-2.2 v 0 c -1.98911,-0.0016 -3.8967,0.790272 -5.3,2.2 l -17.17,17.17 c -1.40692,1.405174 -2.19825,3.311546 -2.2,5.3 v 27.68 h -28.54 c -1.98823,0.003 -3.89421,0.794 -5.3,2.2 l -17.16,17.17 c -2.9312,2.92932 -2.9312,7.68068 0,10.61 z m 8.41,-32.14 h 32.93 c 4.14214,0 7.5,-3.35786 7.5,-7.5 v -32.07 l 9.67,-9.67 9.66,9.67 v 32.07 c 0,4.14214 3.35786,7.5 7.5,7.5 h 31.22 l 9.66,9.67 -9.66,9.67 H 274 c -4.14214,0 -7.5,3.35786 -7.5,7.5 v 32.08 l -9.66,9.66 -9.67,-9.66 v -32.08 c 0,-4.14214 -3.35786,-7.5 -7.5,-7.5 H 206.76 L 197.1,154 Z m 294.68,317.59 -41.17,-17.81 c -2.1926,-0.95407 -4.55883,-1.44434 -6.95,-1.44 v 0 c -7.67654,-0.002 -14.45904,4.99706 -16.73,12.33 L 416.3,454.94 V 57.37 h 20.33 c 2.19241,7.443691 9.02016,12.558399 16.78,12.57 2.32517,-0.0034 4.62645,-0.469119 6.77,-1.37 l 41.1,-17.25 C 515.52266,45.339985 515.59772,25.185938 501.4,19.1 L 460.17,1.42 C 457.98745,0.48090126 455.63602,-0.00231591 453.26,0 h -0.08 c -7.65787,0.03877618 -14.40213,5.0493786 -16.65,12.37 H 75.47 C 73.224895,5.0474255 66.478938,0.03556378 58.82,0 H 58.74 C 56.363985,-0.00231591 54.012555,0.48090126 51.83,1.42 L 10.6,19.1 c -14.1958887,6.090323 -14.1145717,26.244427 0.13,32.22 l 41.09,17.25 c 2.143554,0.900881 4.444834,1.366576 6.77,1.37 7.044162,-0.01101 13.397529,-4.237393 16.13,-10.73 0.255148,-0.599053 0.472246,-1.213607 0.65,-1.84 H 95.7 V 454 l -20.16,-0.06 c -2.228603,-7.32996 -8.959021,-12.3636 -16.62,-12.43 -2.405344,-0.0256 -4.789545,0.4512 -7,1.4 l -41.27,17.5 c -14.2199339,6.03314 -14.2199339,26.18686 0,32.22 l 41,17.38 c 8.900083,3.7619 19.164831,-0.4013 22.93,-9.3 0.255125,-0.59565 0.472227,-1.20688 0.65,-1.83 L 436.56,500 c 0.1804,0.6243 0.39404,1.23851 0.64,1.84 2.72556,6.5187 9.09445,10.76725 16.16,10.78 2.30701,-0.003 4.59066,-0.4622 6.72,-1.35 l 41.14,-17.13 c 14.26704,-5.92724 14.40474,-26.08843 0.22,-32.21 z M 453.25,15 v 0 c 0.34324,2.63e-4 0.68306,0.06823 1,0.2 v 0 l 41.23,17.68 c 2.02694,0.863472 2.02694,3.736528 0,4.6 l -41.1,17.26 c -0.61617,0.247008 -1.30383,0.247008 -1.92,0 -0.61221,-0.255176 -1.10031,-0.739695 -1.36,-1.35 -0.12736,-0.317924 -0.19188,-0.657521 -0.19,-1 l -0.15,-34.93 c 0.0218,-1.361183 1.12865,-2.454729 2.49,-2.46 z m -392,5.82 -0.14,31.63 c -0.0026,0.326837 -0.07063,0.649844 -0.2,0.95 -0.253687,0.610873 -0.739127,1.096313 -1.35,1.35 -0.615139,0.252279 -1.304861,0.252279 -1.92,0 L 16.54,37.49 c -0.601976,-0.244498 -1.080966,-0.719886 -1.33,-1.32 -0.548477,-1.267433 0.0393,-2.739127 1.31,-3.28 L 57.75,15.21 v 0 c 0.31694,-0.131773 0.656758,-0.199737 1,-0.2 v 0 c 1.380716,0.0055 2.495534,1.129284 2.49,2.51 0.02041,1.475641 0.01,1.917408 0.01,3.3 z m 0.05,439.52 c -0.04356,0.33161 -0.06693,0.66556 -0.07,1 -2.57e-4,0.3143 0.01979,0.62829 0.06,0.94 L 61,493.91 c 0.0039,0.34364 -0.06421,0.6843 -0.2,1 -0.260032,0.60776 -0.748459,1.089 -1.36,1.34 -0.616167,0.24701 -1.303833,0.24701 -1.92,0 l -41,-17.38 c -2.026939,-0.86347 -2.026939,-3.73653 0,-4.6 l 41.29,-17.55 v 0 c 0.316862,-0.13203 0.656732,-0.2 1,-0.2 v 0 c 1.365135,0.0109 2.469122,1.11487 2.48,2.48 z m 14.85,-418 0.07,-15 H 435.8 l 0.07,15 z m 325.17,15 V 454.88 L 110.7,454 V 57.37 Z m -325.21,426.55 0.11,-15 c 119.86673,0.31973 239.73336,0.70682 359.6,1.07 v 15 z M 496.79,479 c -0.25454,0.59639 -0.7317,1.06996 -1.33,1.32 l -41.14,17.12 c -0.61381,0.25892 -1.30619,0.25892 -1.92,0 -0.61468,-0.24796 -1.10204,-0.73532 -1.35,-1.35 -0.13471,-0.31573 -0.19952,-0.65687 -0.19,-1 l -0.05,-34.93 c 0,-1.38071 1.11929,-2.5 2.5,-2.5 v 0 c 0.34436,-7.6e-4 0.68504,0.0708 1,0.21 v 0 l 41.18,17.8 c 1.26382,0.55307 1.84442,2.02243 1.3,3.29 z M 147.5,386 h 217 c 4.14214,0 7.5,-3.35786 7.5,-7.5 0,-4.14214 -3.35786,-7.5 -7.5,-7.5 h -217 c -4.14214,0 -7.5,3.35786 -7.5,7.5 0,4.14214 3.35786,7.5 7.5,7.5 z m 0,-123 h 217 c 4.14214,0 7.5,-3.35786 7.5,-7.5 0,-4.14214 -3.35786,-7.5 -7.5,-7.5 h -217 c -4.14214,0 -7.5,3.35786 -7.5,7.5 0,4.14214 3.35786,7.5 7.5,7.5 z m 0,164 h 217 c 4.14214,0 7.5,-3.35786 7.5,-7.5 0,-4.14214 -3.35786,-7.5 -7.5,-7.5 h -217 c -4.14214,0 -7.5,3.35786 -7.5,7.5 0,4.14214 3.35786,7.5 7.5,7.5 z m 0,-82 h 217 c 4.14214,0 7.5,-3.35786 7.5,-7.5 0,-4.14214 -3.35786,-7.5 -7.5,-7.5 h -217 c -4.14214,0 -7.5,3.35786 -7.5,7.5 0,4.14214 3.35786,7.5 7.5,7.5 z m 0,-41 h 217 c 4.14214,0 7.5,-3.35786 7.5,-7.5 0,-4.14214 -3.35786,-7.5 -7.5,-7.5 h -217 c -4.14214,0 -7.5,3.35786 -7.5,7.5 0,4.14214 3.35786,7.5 7.5,7.5 z"/></svg>