<?xml version="1.0" encoding="UTF-8" standalone="no"?>
<svg
   width="700pt"
   height="!00%"
   version="1.1"
   viewBox="0 0 700 700"
   id="svg48"
   sodipodi:docname="noun-chat-3218805.svg"
   inkscape:version="1.1.2 (b8e25be833, 2022-02-05)"
   xmlns:inkscape="http://www.inkscape.org/namespaces/inkscape"
   xmlns:sodipodi="http://sodipodi.sourceforge.net/DTD/sodipodi-0.dtd"
   xmlns="http://www.w3.org/2000/svg"
   xmlns:svg="http://www.w3.org/2000/svg">
  <sodipodi:namedview
     id="namedview50"
     pagecolor="#505050"
     bordercolor="#eeeeee"
     borderopacity="1"
     inkscape:pageshadow="0"
     inkscape:pageopacity="0"
     inkscape:pagecheckerboard="0"
     inkscape:document-units="pt"
     showgrid="false"
     inkscape:zoom="0.44012766"
     inkscape:cx="1020.1586"
     inkscape:cy="349.89848"
     inkscape:window-width="1920"
     inkscape:window-height="1025"
     inkscape:window-x="0"
     inkscape:window-y="27"
     inkscape:window-maximized="1"
     inkscape:current-layer="g46" />
  <defs
     id="defs26">
    <symbol
       id="h"
       overflow="visible">
      <path
         d="m39.078-2.3281c-2.0117 1.043-4.1094 1.8281-6.2969 2.3594s-4.4648 0.79688-6.8281 0.79688c-7.0859 0-12.699-1.9766-16.844-5.9375-4.1367-3.957-6.2031-9.3281-6.2031-16.109 0-6.7891 2.0664-12.164 6.2031-16.125 4.1445-3.9688 9.7578-5.9531 16.844-5.9531 2.3633 0 4.6406 0.26562 6.8281 0.79688s4.2852 1.3242 6.2969 2.375v8.7969c-2.0312-1.3828-4.0391-2.3984-6.0156-3.0469-1.9688-0.64453-4.0469-0.96875-6.2344-0.96875-3.9062 0-6.9844 1.2578-9.2344 3.7656-2.2422 2.5-3.3594 5.9531-3.3594 10.359 0 4.3867 1.1172 7.8359 3.3594 10.344 2.25 2.5 5.3281 3.75 9.2344 3.75 2.1875 0 4.2656-0.32031 6.2344-0.96875 1.9766-0.64453 3.9844-1.6602 6.0156-3.0469z"
         id="path2" />
    </symbol>
    <symbol
       id="g"
       overflow="visible">
      <path
         d="m16.031-40.953v9.0625h10.516v7.2812h-10.516v13.531c0 1.4805 0.28906 2.4805 0.875 3 0.59375 0.52344 1.7656 0.78125 3.5156 0.78125h5.2344v7.2969h-8.7344c-4.0312 0-6.8867-0.83594-8.5625-2.5156-1.6797-1.6875-2.5156-4.5391-2.5156-8.5625v-13.531h-5.0781v-7.2812h5.0781v-9.0625z"
         id="path5" />
    </symbol>
    <symbol
       id="f"
       overflow="visible">
      <path
         d="m26.594-27.234v-17.078h10.266v44.312h-10.266v-4.6094c-1.3984 1.875-2.9453 3.25-4.6406 4.125-1.6875 0.875-3.6406 1.3125-5.8594 1.3125-3.9297 0-7.1562-1.5625-9.6875-4.6875-2.5234-3.125-3.7812-7.1445-3.7812-12.062 0-4.9141 1.2578-8.9375 3.7812-12.062 2.5312-3.125 5.7578-4.6875 9.6875-4.6875 2.1953 0 4.1445 0.44531 5.8438 1.3281 1.707 0.88672 3.2578 2.2578 4.6562 4.1094zm-6.7188 20.656c2.1875 0 3.8516-0.79688 5-2.3906 1.1445-1.5938 1.7188-3.9102 1.7188-6.9531 0-3.0391-0.57422-5.3594-1.7188-6.9531-1.1484-1.5938-2.8125-2.3906-5-2.3906-2.168 0-3.8242 0.79688-4.9688 2.3906-1.1484 1.5938-1.7188 3.9141-1.7188 6.9531 0 3.043 0.57031 5.3594 1.7188 6.9531 1.1445 1.5938 2.8008 2.3906 4.9688 2.3906z"
         id="path8" />
    </symbol>
    <symbol
       id="e"
       overflow="visible">
      <path
         d="m21.875-6.5781c2.1758 0 3.8359-0.79688 4.9844-2.3906 1.1562-1.5938 1.7344-3.9102 1.7344-6.9531 0-3.0391-0.57812-5.3594-1.7344-6.9531-1.1484-1.5938-2.8086-2.3906-4.9844-2.3906-2.1875 0-3.8672 0.80469-5.0312 2.4062-1.168 1.6055-1.75 3.918-1.75 6.9375 0 3.0234 0.58203 5.3359 1.75 6.9375 1.1641 1.6055 2.8438 2.4062 5.0312 2.4062zm-6.7812-20.656c1.4062-1.8516 2.9609-3.2227 4.6719-4.1094 1.707-0.88281 3.6719-1.3281 5.8906-1.3281 3.9375 0 7.1641 1.5625 9.6875 4.6875 2.5195 3.125 3.7812 7.1484 3.7812 12.062 0 4.918-1.2617 8.9375-3.7812 12.062-2.5234 3.125-5.75 4.6875-9.6875 4.6875-2.2188 0-4.1836-0.44531-5.8906-1.3281-1.7109-0.88281-3.2656-2.2539-4.6719-4.1094v4.6094h-10.188v-44.312h10.188z"
         id="path11" />
    </symbol>
    <symbol
       id="d"
       overflow="visible">
      <path
         d="m22.391-26.062c1.7266 0 3.0352-0.37891 3.9219-1.1406 0.89453-0.75781 1.3438-1.8789 1.3438-3.3594 0-1.457-0.44922-2.5703-1.3438-3.3438-0.88672-0.76953-2.1953-1.1562-3.9219-1.1562h-6.0781v9zm0.35938 18.594c2.207 0 3.8633-0.46094 4.9688-1.3906 1.1133-0.92578 1.6719-2.332 1.6719-4.2188 0-1.832-0.55469-3.207-1.6562-4.125-1.0938-0.92578-2.7578-1.3906-4.9844-1.3906h-6.4375v11.125zm10.203-15.281c2.3516 0.67969 4.1758 1.9375 5.4688 3.7812 1.2891 1.8438 1.9375 4.1055 1.9375 6.7812 0 4.1055-1.3867 7.1641-4.1562 9.1719-2.7734 2.0117-6.9922 3.0156-12.656 3.0156h-18.188v-42.516h16.453c5.9062 0 10.18 0.89062 12.828 2.6719 2.6562 1.7812 3.9844 4.6406 3.9844 8.5781 0 2.0625-0.48438 3.8242-1.4531 5.2812-0.96875 1.4492-2.375 2.5273-4.2188 3.2344z"
         id="path14" />
    </symbol>
    <symbol
       id="c"
       overflow="visible">
      <path
         d="m4.9062-44.312h10.188v44.312h-10.188z"
         id="path17" />
    </symbol>
    <symbol
       id="b"
       overflow="visible">
      <path
         d="m4.9062-44.312h10.188v24.125l11.734-11.703h11.844l-15.578 14.625 16.812 17.266h-12.359l-12.453-13.297v13.297h-10.188z"
         id="path20" />
    </symbol>
    <symbol
       id="a"
       overflow="visible">
      <path
         d="m31.156-7.75h-17.141l-2.7031 7.75h-11.031l15.75-42.516h13.078l15.75 42.516h-11.031zm-14.406-7.8906h11.641l-5.8125-16.906z"
         id="path23" />
    </symbol>
  </defs>
  <g
     id="g46">
    <path
       d="m 508.10893,269.8683 v -84.516 c -0.19141,-22.199 -9.1797,-43.418 -24.992,-58.996 -15.812,-15.582 -37.164,-24.254 -59.363,-24.117 h -237.77 c -22.031,0.0273 -43.156,8.793 -58.738,24.371 -15.582,15.582 -24.348,36.707 -24.375,58.742 v 240.24 c 0,4.9297 3.1016,9.332 7.75,10.98 1.2539,0.45703 2.582,0.6875 3.918,0.68359 3.5039,0 6.8203,-1.5703 9.0352,-4.2812 l 60.602,-74.078 v 80.242 c -0.24609,22.445 8.5664,44.043 24.438,59.918 15.871,15.871 37.473,24.68 59.918,24.438 h 237.17 l 63.004,77.02 v -0.004 c 2.2188,2.7109 5.5352,4.2852 9.0352,4.2852 1.3359,0.004 2.6641,-0.22656 3.918,-0.68359 4.6484,-1.6523 7.75,-6.0508 7.75,-10.984 v -240.22 c -0.0312,-21.715 -8.5547,-42.559 -23.746,-58.074 -15.191,-15.512 -35.848,-24.473 -57.559,-24.961 z m -327.04,62.742 c -3.5,0 -6.8164,1.5742 -9.0352,4.2852 l -45.82,56.008 v -207.55 c 0.0156,-15.848 6.3203,-31.043 17.527,-42.25 11.207,-11.207 26.402,-17.512 42.25,-17.527 h 237.77 c 16.07,-0.33984 31.598,5.8125 43.078,17.059 11.484,11.25 17.949,26.648 17.945,42.719 v 86.234 c 0.1875,2.0781 -0.0234,4.1719 -0.625,6.1641 -0.27344,0.80859 -0.45703,1.6406 -0.54687,2.4844 -1.7031,14.598 -8.7695,28.043 -19.832,37.723 -11.059,9.6797 -25.324,14.902 -40.02,14.652 z m 385.01,227.83 -45.812,-56 c -2.2148,-2.7109 -5.5312,-4.2812 -9.0352,-4.2852 h -242.7 c -16.238,0.17578 -31.859,-6.1992 -43.344,-17.68 -11.48,-11.48 -17.855,-27.105 -17.68,-43.34 v -83.195 h 216.24 c 4.5508,-0.0195 9.0898,-0.39844 13.578,-1.1328 0.41406,-0.0664 0.83203,-0.0977 1.2422,-0.17188 v 0.004 c 4.1367,-0.73438 8.2148,-1.7773 12.199,-3.1172 0.57422,-0.19141 1.1523,-0.35937 1.7227,-0.5625 3.7852,-1.3555 7.4688,-2.9766 11.023,-4.8594 0.58984,-0.3125 1.1758,-0.625 1.7617,-0.94922 h -0.004 c 3.4531,-1.9258 6.7656,-4.0938 9.9102,-6.4883 0.50781,-0.38672 0.99609,-0.78906 1.4961,-1.1875 h -0.004 c 3.1211,-2.4805 6.0547,-5.1797 8.7852,-8.082 0.35156,-0.375 0.67188,-0.77344 1.0156,-1.1562 2.7773,-3.0625 5.3203,-6.3281 7.6016,-9.7734 0.125,-0.19141 0.23047,-0.39844 0.35547,-0.59375 2.3008,-3.5742 4.3164,-7.3281 6.0273,-11.227 0.0781,-0.17188 0.17188,-0.33594 0.24609,-0.50781 h -0.004 c 1.668,-3.9336 3.0156,-7.9961 4.0352,-12.148 0.0781,-0.30469 0.21875,-0.57422 0.29297,-0.87891 h 1.2656 c 15.848,0.0195 31.043,6.3242 42.25,17.535 11.207,11.207 17.512,26.406 17.527,42.258 z"
       id="path28" />
  </g>
</svg>
