<?xml version="1.0" encoding="UTF-8" standalone="no"?>
<svg
   enable-background="new 0 0 32 32"
   viewBox="0 0 32 32"
   version="1.1"
   id="svg4"
   sodipodi:docname="crewmate.svg"
   inkscape:version="1.1.2 (08b2f3d93c, 2022-04-05)"
   xmlns:inkscape="http://www.inkscape.org/namespaces/inkscape"
   xmlns:sodipodi="http://sodipodi.sourceforge.net/DTD/sodipodi-0.dtd"
   xmlns="http://www.w3.org/2000/svg"
   xmlns:svg="http://www.w3.org/2000/svg">
  <defs
     id="defs8" />
  <sodipodi:namedview
     id="namedview6"
     pagecolor="#505050"
     bordercolor="#eeeeee"
     borderopacity="1"
     inkscape:pageshadow="0"
     inkscape:pageopacity="0"
     inkscape:pagecheckerboard="0"
     showgrid="false"
     inkscape:zoom="12.779347"
     inkscape:cx="19.641066"
     inkscape:cy="23.240624"
     inkscape:window-width="1920"
     inkscape:window-height="1025"
     inkscape:window-x="0"
     inkscape:window-y="27"
     inkscape:window-maximized="1"
     inkscape:current-layer="svg4" />
  <path
     d="m 25.48025,11.808385 c 0,-1.164347 -0.47885,-2.2177 -1.248095,-2.978059 C 23.374634,6.6508537 21.253928,5.1018004 18.773666,5.1018004 h -3.353292 c -3.235843,0 -5.8682615,2.6324182 -5.8682615,5.8682616 H 8.7137894 c -1.3868378,0 -2.5149691,1.128131 -2.5149691,2.514969 v 6.706584 c 0,1.386838 1.1281313,2.514969 2.5149691,2.514969 h 0.8383231 v 0.838323 0.838323 c 0,1.386838 1.1281315,2.51497 2.5149695,2.51497 h 1.676645 c 1.386838,0 2.51497,-1.128132 2.51497,-2.51497 v -1.483244 c 0.100934,0.007 0.206982,0.01123 0.318898,0.01123 0.390658,0 0.849221,-0.0534 1.357748,-0.188874 v 1.660885 c 0,1.386838 1.128131,2.51497 2.514969,2.51497 h 1.676646 c 1.386838,0 2.514969,-1.128132 2.514969,-2.51497 v -0.83832 -9.247457 c 0.51976,-0.698072 0.838323,-1.553916 0.838323,-2.489065 z m -1.676646,0 c 0,1.386838 -1.128131,2.514969 -2.514969,2.514969 h -3.353292 c -1.386838,0 -2.514969,-1.128131 -2.514969,-2.514969 0,-1.386838 1.128131,-2.5149694 2.514969,-2.5149694 h 3.353292 c 1.386838,0 2.514969,1.1281314 2.514969,2.5149694 z M 8.7137894,21.029938 c -0.4621674,0 -0.838323,-0.376155 -0.838323,-0.838323 v -6.706584 c 0,-0.462168 0.3761556,-0.838323 0.838323,-0.838323 h 0.8383231 v 8.38323 z M 22.965281,24.38323 c 0,0.462168 -0.376156,0.838324 -0.838323,0.838324 h -1.676646 c -0.462168,0 -0.838323,-0.376156 -0.838323,-0.838324 V 22.0148 c 0.152658,-0.08844 0.307161,-0.182167 0.465018,-0.287377 0.385209,-0.256694 0.489161,-0.777293 0.232467,-1.162502 -0.257449,-0.38521 -0.777294,-0.49 -1.162503,-0.232467 -2.008203,1.339724 -3.285723,0.815436 -3.364777,0.779808 -0.0059,-0.0029 -0.01224,-0.002 -0.01819,-0.0047 -0.04711,-0.02138 -0.100012,-0.02632 -0.151317,-0.03881 -0.05835,-0.014 -0.115102,-0.0337 -0.173617,-0.03504 -0.0065,-1.68e-4 -0.01207,-0.0038 -0.01869,-0.0038 -0.03722,0 -0.06891,0.01651 -0.104875,0.02121 -0.06681,0.0086 -0.132539,0.01526 -0.195077,0.0394 -0.04577,0.01769 -0.08308,0.04644 -0.124575,0.07151 -0.05005,0.03001 -0.100264,0.05642 -0.143521,0.09674 -0.04158,0.03865 -0.07008,0.0866 -0.103114,0.132959 -0.02507,0.03529 -0.05877,0.06162 -0.07872,0.10152 -0.0041,0.0082 -0.0031,0.01727 -0.0069,0.02557 -0.02289,0.04955 -0.03001,0.104539 -0.04301,0.158695 -0.01316,0.05567 -0.03186,0.109569 -0.03345,0.165485 -3.35e-4,0.0089 -0.0051,0.01635 -0.0051,0.02523 V 24.3832 c 0,0.462168 -0.376155,0.838324 -0.838323,0.838324 h -1.676633 c -0.462168,0 -0.838323,-0.376156 -0.838323,-0.838324 V 23.544907 21.868261 11.808385 10.970062 c 0,-2.3110893 1.880526,-4.1916155 4.191615,-4.1916155 h 3.353292 c 0.938335,0 1.801472,0.3147903 2.500214,0.838323 h -3.338537 c -2.311089,0 -4.191616,1.8805263 -4.191616,4.1916155 0,2.311089 1.880527,4.191615 4.191616,4.191615 h 3.353292 c 0.596718,0 1.162251,-0.129521 1.676646,-0.355281 v 7.900188 z M 21.288635,10.970062 c 0,-0.463006 0.375317,-0.838323 0.838323,-0.838323 0.463006,0 0.838323,0.375317 0.838323,0.838323 0,0.462922 -0.375317,0.838323 -0.838323,0.838323 -0.463006,0 -0.838323,-0.375401 -0.838323,-0.838323 z m -3.353292,-0.838323 h 1.676646 c 0.462922,0 0.838323,0.375401 0.838323,0.838323 0,0.462922 -0.375401,0.838323 -0.838323,0.838323 h -1.676646 c -0.462922,0 -0.838323,-0.375401 -0.838323,-0.838323 0,-0.462922 0.375401,-0.838323 0.838323,-0.838323 z"
     id="path2"
     style="stroke-width:0.838323" />
</svg>
