<?xml version="1.0" encoding="UTF-8" standalone="no"?>
<svg
   width="100%"
   version="1.1"
   viewBox="0 0 700 700"
   id="svg4"
   sodipodi:docname="noun-info-4405189.svg"
   inkscape:version="1.1.2 (76b9e6a115, 2022-02-25)"
   xmlns:inkscape="http://www.inkscape.org/namespaces/inkscape"
   xmlns:sodipodi="http://sodipodi.sourceforge.net/DTD/sodipodi-0.dtd"
   xmlns="http://www.w3.org/2000/svg"
   xmlns:svg="http://www.w3.org/2000/svg">
  <defs
     id="defs8" />
  <sodipodi:namedview
     id="namedview6"
     pagecolor="#505050"
     bordercolor="#eeeeee"
     borderopacity="1"
     inkscape:pageshadow="0"
     inkscape:pageopacity="0"
     inkscape:pagecheckerboard="0"
     inkscape:document-units="pt"
     showgrid="false"
     inkscape:zoom="0.32749895"
     inkscape:cx="1053.4385"
     inkscape:cy="448.8564"
     inkscape:window-width="1920"
     inkscape:window-height="1025"
     inkscape:window-x="0"
     inkscape:window-y="27"
     inkscape:window-maximized="1"
     inkscape:current-layer="svg4" />
  <path
     d="m 350,144.12567 c -119.52,0 -216.65,97.125 -216.65,216.65 0,119.525 97.125,216.65 216.65,216.65 119.525,0 216.65,-97.125 216.65,-216.65 0,-119.525 -97.125,-216.65 -216.65,-216.65 z m 17.5,335.3 c 0,9.8008 -7.875,17.5 -17.5,17.5 -9.625,0 -17.5,-7.6992 -17.5,-17.5 v -145.07 c 0,-9.625 7.875,-17.5 17.5,-17.5 9.625,0 17.5,7.875 17.5,17.5 z m -17.5,-187.25 c -13.824,0 -25.023,-11.199 -25.023,-25.023 0,-13.824 11.199,-25.023 25.023,-25.023 13.824,0 25.023,11.199 25.023,25.027 0,13.82 -11.199,25.02 -25.023,25.02 z"
     id="path2" />
</svg>
