<?xml version="1.0" encoding="UTF-8" standalone="no"?>
<svg
   width="100%"
   version="1.1"
   viewBox="0 0 700 700"
   id="svg4"
   sodipodi:docname="noun-notification-4721385.svg"
   inkscape:version="1.1.2 (0a00cf5339, 2022-02-04)"
   xmlns:inkscape="http://www.inkscape.org/namespaces/inkscape"
   xmlns:sodipodi="http://sodipodi.sourceforge.net/DTD/sodipodi-0.dtd"
   xmlns="http://www.w3.org/2000/svg"
   xmlns:svg="http://www.w3.org/2000/svg">
  <defs
     id="defs8" />
  <sodipodi:namedview
     id="namedview6"
     pagecolor="#505050"
     bordercolor="#eeeeee"
     borderopacity="1"
     inkscape:pageshadow="0"
     inkscape:pageopacity="0"
     inkscape:pagecheckerboard="0"
     inkscape:document-units="pt"
     showgrid="false"
     inkscape:zoom="0.93535714"
     inkscape:cx="466.66667"
     inkscape:cy="466.13211"
     inkscape:window-width="2560"
     inkscape:window-height="1355"
     inkscape:window-x="0"
     inkscape:window-y="0"
     inkscape:window-maximized="1"
     inkscape:current-layer="svg4" />
  <path
     d="m 506.01,413.00685 -11.34,-124.74 c -2.4531,-28.164 -13.121,-54.992 -30.68,-77.148 -17.555,-22.16 -41.234,-38.676 -68.09,-47.5 4.2734,-7.6289 6.543,-16.219 6.6016,-24.965 0,-18.758 -10.008,-36.09 -26.25,-45.469003 -16.242,-9.3789 -36.258,-9.3789 -52.5,0 -16.242,9.378903 -26.25,26.711003 -26.25,45.469003 0.0586,8.7461 2.3281,17.336 6.6016,24.965 -26.855,8.8242 -50.535,25.34 -68.09,47.5 -17.559,22.156 -28.227,48.984 -30.68,77.148 l -11.34,124.74 c -18.156,1.5352 -34.215,12.375 -42.434,28.637 -8.219,16.262 -7.4141,35.621 2.1172,51.148 9.5352,15.527 26.438,25 44.656,25.027 h 76.418 c 1.8047,25.629 16.531,48.574 39.074,60.895 22.543,12.32 49.809,12.32 72.352,0 22.543,-12.32 37.27,-35.266 39.074,-60.895 h 76.418 c 18.219,-0.0273 35.121,-9.5 44.656,-25.027 9.5312,-15.527 10.336,-34.887 2.1172,-51.148 -8.2188,-16.261 -24.277,-27.102 -42.434,-28.637 z M 350,121.15685 c 4.6406,0 9.0938,1.8438 12.375,5.125 3.2812,3.2812 5.125,7.7305 5.125,12.375 0,4.6406 -1.8438,9.0898 -5.125,12.375 -3.2812,3.2812 -7.7344,5.125 -12.375,5.125 -4.6406,0 -9.0938,-1.8438 -12.375,-5.125 -3.2812,-3.2852 -5.125,-7.7344 -5.125,-12.375 0,-4.6445 1.8438,-9.0938 5.125,-12.375 3.2812,-3.2812 7.7344,-5.125 12.375,-5.125 z m 0,431.67 v -0.004 c -9.793,-0.0273 -19.25,-3.582 -26.641,-10.008 -7.391,-6.426 -12.219,-15.297 -13.609,-24.992 h 80.5 c -1.3906,9.6953 -6.2188,18.566 -13.609,24.992 -7.3902,6.426 -16.848,9.9805 -26.641,10.008 z m 151.67,-70 -303.34,-0.004 c -6.25,0 -12.027,-3.3359 -15.152,-8.75 -3.1289,-5.4141 -3.1289,-12.086 0,-17.5 3.125,-5.4141 8.9023,-8.75 15.152,-8.75 h 11.668 c 4.3672,0 8.5781,-1.6289 11.801,-4.5742 3.2266,-2.9453 5.2344,-6.9883 5.6289,-11.336 l 12.762,-140.49 v -0.004 c 3.3203,-36.895 24.945,-69.652 57.562,-87.207 32.621,-17.555 71.871,-17.555 104.49,0 32.617,17.555 54.242,50.312 57.562,87.207 l 12.762,140.49 v 0.004 c 0.39453,4.3477 2.4023,8.3906 5.6289,11.336 3.2227,2.9453 7.4336,4.5742 11.801,4.5742 h 11.668 c 6.25,0 12.027,3.3359 15.152,8.75 3.1289,5.4141 3.1289,12.086 0,17.5 -3.125,5.4141 -8.9023,8.75 -15.152,8.75 z"
     id="path2" />
</svg>
